<svg width="80" height="77" viewBox="0 0 80 77" fill="none" xmlns="http://www.w3.org/2000/svg">
<path d="M0.9 70.071C0.833333 70.071 0.8 70.0377 0.8 69.971L0.84 56.231C0.84 56.1777 0.866667 56.151 0.92 56.151L4.66 56.131C5.39333 56.1177 6.06 56.291 6.66 56.651C7.27333 57.011 7.76 57.4977 8.12 58.111C8.48 58.711 8.66 59.3777 8.66 60.111V65.851C8.66 66.6244 8.47333 67.331 8.1 67.971C7.72667 68.5977 7.22667 69.0977 6.6 69.471C5.97333 69.8444 5.26667 70.0377 4.48 70.051L0.9 70.071ZM3.24 67.611H4.48C4.97333 67.611 5.38667 67.4377 5.72 67.091C6.06667 66.7444 6.24 66.331 6.24 65.851V60.091C6.24 59.6644 6.08 59.2977 5.76 58.991C5.45333 58.671 5.08667 58.5177 4.66 58.531L3.26 58.551L3.24 67.611ZM10.3136 70.071C10.2603 70.071 10.2336 70.0377 10.2336 69.971L10.2736 56.231C10.2736 56.1777 10.3003 56.151 10.3536 56.151H14.3936C15.1136 56.151 15.7736 56.331 16.3736 56.691C16.9869 57.0377 17.4736 57.511 17.8336 58.111C18.1936 58.6977 18.3736 59.3644 18.3736 60.111C18.3736 60.6044 18.3003 61.051 18.1536 61.451C18.0069 61.8377 17.8336 62.171 17.6336 62.451C17.4336 62.7177 17.2536 62.9177 17.0936 63.051C17.8136 63.851 18.1736 64.791 18.1736 65.871L18.1936 69.971C18.1936 70.0377 18.1603 70.071 18.0936 70.071H15.8336C15.7803 70.071 15.7536 70.051 15.7536 70.011V65.871C15.7536 65.391 15.5803 64.9777 15.2336 64.631C14.9003 64.271 14.4869 64.091 13.9936 64.091H12.6736L12.6536 69.971C12.6536 70.0377 12.6269 70.071 12.5736 70.071H10.3136ZM12.6736 61.691H14.3936C14.8069 61.691 15.1736 61.5377 15.4936 61.231C15.8136 60.9244 15.9736 60.551 15.9736 60.111C15.9736 59.6844 15.8136 59.3177 15.4936 59.011C15.1869 58.7044 14.8203 58.551 14.3936 58.551H12.6736V61.691ZM19.982 70.071C19.9154 70.071 19.882 70.0377 19.882 69.971L19.902 56.231C19.902 56.1777 19.9287 56.151 19.982 56.151H22.222C22.2754 56.151 22.302 56.1777 22.302 56.231L22.322 69.971C22.322 70.0377 22.2954 70.071 22.242 70.071H19.982ZM26.3213 70.071C26.2679 70.071 26.2346 70.0377 26.2212 69.971L23.4613 56.231C23.4479 56.1777 23.4746 56.151 23.5413 56.151H25.8013C25.8546 56.151 25.8879 56.1777 25.9013 56.231L27.5413 65.391L29.1413 56.231C29.1546 56.1777 29.1879 56.151 29.2413 56.151H31.4813C31.5479 56.151 31.5746 56.1777 31.5613 56.231L28.8413 69.971C28.8279 70.0377 28.7946 70.071 28.7413 70.071H26.3213ZM32.8136 70.071C32.7603 70.071 32.7336 70.0377 32.7336 69.971L32.7536 56.231C32.7536 56.1777 32.7803 56.151 32.8336 56.151H39.2536C39.3069 56.151 39.3336 56.1844 39.3336 56.251V58.491C39.3336 58.5444 39.3069 58.571 39.2536 58.571H35.1536V61.691H39.2536C39.3069 61.691 39.3336 61.7177 39.3336 61.771L39.3536 64.031C39.3536 64.0844 39.3269 64.111 39.2736 64.111H35.1536V67.611H39.2736C39.3269 67.611 39.3536 67.6444 39.3536 67.711V69.991C39.3536 70.0444 39.3269 70.071 39.2736 70.071H32.8136ZM44.1808 70.071C44.1274 70.071 44.1008 70.0377 44.1008 69.971L44.1408 56.231C44.1408 56.1777 44.1674 56.151 44.2208 56.151H46.6608C46.7141 56.151 46.7608 56.1777 46.8008 56.231L48.6208 58.871L50.4408 56.231C50.4808 56.1777 50.5274 56.151 50.5808 56.151H53.0408C53.0941 56.151 53.1208 56.1777 53.1208 56.231L53.1608 69.971C53.1608 70.0377 53.1341 70.071 53.0808 70.071H50.8208C50.7674 70.071 50.7408 70.0377 50.7408 69.971L50.7208 59.771L48.6208 62.811L46.5408 59.771L46.5208 69.971C46.5208 70.0377 46.4941 70.071 46.4408 70.071H44.1808ZM58.543 70.271C57.823 70.271 57.163 70.091 56.563 69.731C55.9763 69.3577 55.503 68.871 55.143 68.271C54.783 67.6577 54.603 66.9844 54.603 66.251L54.623 59.911C54.623 59.1777 54.7963 58.511 55.143 57.911C55.503 57.311 55.983 56.831 56.583 56.471C57.183 56.111 57.8363 55.931 58.543 55.931C59.263 55.931 59.9163 56.111 60.503 56.471C61.0896 56.831 61.5563 57.311 61.903 57.911C62.263 58.511 62.443 59.1777 62.443 59.911L62.463 66.251C62.463 66.9844 62.283 67.6577 61.923 68.271C61.5763 68.871 61.103 69.3577 60.503 69.731C59.9163 70.091 59.263 70.271 58.543 70.271ZM58.543 67.851C58.943 67.851 59.2896 67.691 59.583 67.371C59.8896 67.0377 60.043 66.6644 60.043 66.251L60.023 59.911C60.023 59.471 59.883 59.0977 59.603 58.791C59.323 58.4844 58.9696 58.331 58.543 58.331C58.1296 58.331 57.7763 58.4844 57.483 58.791C57.1896 59.0844 57.043 59.4577 57.043 59.911V66.251C57.043 66.691 57.1896 67.071 57.483 67.391C57.7763 67.6977 58.1296 67.851 58.543 67.851ZM65.7297 70.071C65.6764 70.071 65.6497 70.0377 65.6497 69.971V58.571H63.0497C62.983 58.571 62.9497 58.5377 62.9497 58.471L62.9697 56.231C62.9697 56.1777 62.9964 56.151 63.0497 56.151H70.6497C70.7164 56.151 70.7497 56.1777 70.7497 56.231V58.471C70.7497 58.5377 70.723 58.571 70.6697 58.571H68.0497L68.0697 69.971C68.0697 70.0377 68.043 70.071 67.9897 70.071H65.7297ZM74.9883 70.271C74.2683 70.271 73.6083 70.091 73.0083 69.731C72.4216 69.3577 71.9483 68.871 71.5883 68.271C71.2283 67.6577 71.0483 66.9844 71.0483 66.251L71.0683 59.911C71.0683 59.1777 71.2416 58.511 71.5883 57.911C71.9483 57.311 72.4283 56.831 73.0283 56.471C73.6283 56.111 74.2816 55.931 74.9883 55.931C75.7083 55.931 76.3616 56.111 76.9483 56.471C77.5349 56.831 78.0016 57.311 78.3483 57.911C78.7083 58.511 78.8883 59.1777 78.8883 59.911L78.9083 66.251C78.9083 66.9844 78.7283 67.6577 78.3683 68.271C78.0216 68.871 77.5483 69.3577 76.9483 69.731C76.3616 70.091 75.7083 70.271 74.9883 70.271ZM74.9883 67.851C75.3883 67.851 75.7349 67.691 76.0283 67.371C76.3349 67.0377 76.4883 66.6644 76.4883 66.251L76.4683 59.911C76.4683 59.471 76.3283 59.0977 76.0483 58.791C75.7683 58.4844 75.4149 58.331 74.9883 58.331C74.5749 58.331 74.2216 58.4844 73.9283 58.791C73.6349 59.0844 73.4883 59.4577 73.4883 59.911V66.251C73.4883 66.691 73.6349 67.071 73.9283 67.391C74.2216 67.6977 74.5749 67.851 74.9883 67.851Z" fill="#1C62CD"/>
<path d="M59.0441 7.93419C58.3406 7.23272 57.2364 7.12928 56.4141 7.68808C53.3163 9.79382 37.7781 20.3825 36.1082 22.0477C33.6866 24.4629 33.6866 28.3923 36.1082 30.8075C37.319 32.0149 38.9097 32.6187 40.5001 32.6187C42.0905 32.6187 43.681 32.0149 44.8919 30.8075C46.5618 29.1421 57.1794 13.6465 59.291 10.5571C59.8511 9.73715 59.7475 8.63586 59.0441 7.93419ZM41.9639 27.8875C41.1568 28.6926 39.8433 28.6926 39.0362 27.8875C38.229 27.0826 38.2288 25.7731 39.0358 24.9681C39.6846 24.3287 44.0961 21.191 49.5239 17.4285C45.7511 22.8414 42.6049 27.2407 41.9639 27.8875Z" fill="#1C62CD"/>
<path d="M23.5473 36.0307L20.9915 37.274C19.1214 33.9456 18.1406 30.2306 18.1406 26.4276C18.1406 23.6412 18.6558 20.9725 19.5961 18.5114L22.5246 19.9122C22.8134 20.0504 23.1183 20.1158 23.4186 20.1158C24.1901 20.1158 24.9307 19.6838 25.2867 18.9436C25.7811 17.9155 25.3463 16.6822 24.3153 16.1891L21.4239 14.8059C25.0177 8.96091 31.2356 4.8858 38.4298 4.22408V7.32942C38.4298 8.46973 39.3567 9.39407 40.5001 9.39407C41.6435 9.39407 42.5704 8.46973 42.5704 7.32942V4.22253C45.037 4.44644 47.4236 5.07285 49.6893 6.09279C50.7312 6.56199 51.9575 6.09961 52.428 5.06057C52.8985 4.02122 52.435 2.79843 51.3928 2.32924C47.9596 0.783742 44.2948 0 40.5 0C33.4216 0 26.7669 2.74888 21.7616 7.74039C16.7565 12.732 14 19.3685 14 26.4276C14 31.6439 15.5525 36.7172 18.4898 41.0985C18.8854 41.6885 19.5395 42.0158 20.2122 42.0158C20.518 42.0158 20.8277 41.9482 21.1187 41.8067L25.3628 39.742C26.3905 39.2421 26.8172 38.0061 26.3159 36.9812C25.8145 35.9564 24.575 35.5309 23.5473 36.0307Z" fill="#1C62CD"/>
<path d="M64.6643 15.5647C64.194 14.5254 62.968 14.0629 61.9255 14.5323C60.8834 15.0015 60.42 16.2243 60.8905 17.2636C62.197 20.1497 62.8594 23.233 62.8594 26.4276C62.8594 30.2363 61.8754 33.9573 59.9998 37.2896L57.3315 36.0224C56.2994 35.5322 55.0639 35.9692 54.5722 36.9989C54.0806 38.0283 54.519 39.2604 55.5514 39.7506L59.899 41.8153C60.185 41.951 60.4882 42.016 60.788 42.016C61.4608 42.016 62.1151 41.6882 62.5102 41.0986C65.4475 36.7172 67.0001 31.644 67.0001 26.4276C67.0001 22.6432 66.2142 18.9884 64.6643 15.5647Z" fill="#1C62CD"/>
</svg>
