<svg width="44" height="31" viewBox="0 0 44 31" fill="none" xmlns="http://www.w3.org/2000/svg">
<path d="M44 20.071C44 25.5939 39.5228 30.071 34 30.071C28.4772 30.071 24 25.5939 24 20.071C24 14.5482 28.4772 10.071 34 10.071C39.5228 10.071 44 14.5482 44 20.071Z" fill="#1C62CD"/>
<path d="M33.5439 24.071V18.1091H33.5195L31.6787 19.4177V18.3435L33.5342 17.0251H34.6133V24.071H33.5439Z" fill="white"/>
<path d="M29.999 0.917969L29.0703 3.41114H26.659L22.3165 18.3701H5.76777L-0.000976562 4.65772H21.014L20.309 7.15089H3.75902L7.43027 15.877H20.4653L24.7553 0.917969H29.999ZM10.624 19.6167C9.58902 19.6167 8.74902 20.4544 8.74902 21.4866C8.74902 22.52 9.58902 23.3565 10.624 23.3565C11.659 23.3565 12.499 22.52 12.499 21.4866C12.499 20.4544 11.659 19.6167 10.624 19.6167ZM19.249 10.8906L16.874 19.6167C15.839 19.6167 14.999 20.4532 14.999 21.4866C14.999 22.52 15.839 23.3565 16.874 23.3565C17.909 23.3565 18.749 22.52 18.749 21.4866C18.749 20.4544 17.909 19.6167 16.874 19.6167L19.249 10.8906Z" fill="#2F3035"/>
</svg>
