<svg width="24" height="23" viewBox="0 0 24 23" fill="none" xmlns="http://www.w3.org/2000/svg">
<path d="M12 9.1244C12.234 8.00746 13.547 2.91243 17.382 2.91243C19.602 2.91243 22 4.45919 22 7.90175C22 11.7981 18.373 16.3486 12 20.4962C5.627 16.3486 2 11.7981 2 7.90175C2 4.42727 4.369 2.91043 6.577 2.91043C10.5 2.91043 11.722 8.02242 12 9.1244ZM0 7.90175C0 11.9586 3.06 17.3568 12 22.8578C20.94 17.3568 24 11.9586 24 7.90175C24 -0.0384868 14.352 -1.10157 12 4.17496C9.662 -1.07265 0 -0.0833639 0 7.90175Z" fill="#2F3035"/>
</svg>
