<svg width="30" height="31" viewBox="0 0 30 31" fill="none" xmlns="http://www.w3.org/2000/svg">
<g clip-path="url(#clip0_59_264)">
<path d="M14.9939 0.0710449C8.36497 0.0710449 2.96875 5.46727 2.96875 12.0962C2.96875 12.8509 3.03793 13.6119 3.18259 14.3541C3.18888 14.3981 3.21403 14.5302 3.26435 14.7566C3.44674 15.5679 3.71718 16.3666 4.06938 17.1277C5.36498 20.178 8.21403 24.8635 14.4656 29.8824C14.6228 30.0082 14.8115 30.071 15.0002 30.071C15.1889 30.071 15.3776 30.0082 15.5348 29.8824C21.7801 24.8635 24.6354 20.178 25.931 17.1277C26.2832 16.3666 26.5537 15.5742 26.736 14.7566C26.7864 14.5302 26.8115 14.3981 26.8178 14.3541C26.9562 13.6119 27.0316 12.8509 27.0316 12.0962C27.0191 5.46727 21.6228 0.0710449 14.9939 0.0710449ZM25.1323 14.0585C25.1323 14.071 25.126 14.0836 25.126 14.0962C25.1197 14.1276 25.1008 14.222 25.0694 14.3666C25.0694 14.3729 25.0694 14.3729 25.0694 14.3792C24.9121 15.0836 24.6794 15.7692 24.3713 16.4295C24.365 16.4358 24.365 16.4484 24.3587 16.4547C23.1826 19.2409 20.604 23.4924 14.9939 28.1277C9.38384 23.4924 6.80523 19.2409 5.62913 16.4547C5.62284 16.4484 5.62284 16.4358 5.61655 16.4295C5.31466 15.7754 5.08196 15.0836 4.91843 14.3792C4.91843 14.3729 4.91843 14.3729 4.91843 14.3666C4.8807 14.222 4.86812 14.1276 4.86183 14.0962C4.86183 14.0836 4.85554 14.071 4.85554 14.0522C4.72976 13.4044 4.66686 12.7503 4.66686 12.0899C4.66686 6.39809 9.30208 1.76287 14.9939 1.76287C20.6857 1.76287 25.3209 6.39809 25.3209 12.0899C25.3209 12.7566 25.2581 13.417 25.1323 14.0585Z" fill="black"/>
<path d="M14.9941 4.59302C10.7866 4.59302 7.35889 8.02069 7.35889 12.2282C7.35889 16.4358 10.7866 19.8635 14.9941 19.8635C19.2016 19.8635 22.6293 16.4358 22.6293 12.2282C22.6293 8.02069 19.2016 4.59302 14.9941 4.59302ZM14.9941 18.1653C11.7174 18.1653 9.057 15.4987 9.057 12.2282C9.057 8.9578 11.7237 6.29113 14.9941 6.29113C18.2645 6.29113 20.9312 8.9578 20.9312 12.2282C20.9312 15.4987 18.2708 18.1653 14.9941 18.1653Z" fill="black"/>
</g>
<defs>
<clipPath id="clip0_59_264">
<rect width="30" height="30" fill="white" transform="translate(0 0.0710449)"/>
</clipPath>
</defs>
</svg>
